<?xml version="1.0" encoding="UTF-8"?>
<svg width="8px" height="10px" viewBox="0 0 8 10" version="1.1" xmlns="http://www.w3.org/2000/svg" xmlns:xlink="http://www.w3.org/1999/xlink">
    <!-- Generator: Sketch 44.1 (41455) - http://www.bohemiancoding.com/sketch -->
    <title>icon-pause</title>
    <desc>Created with Sketch.</desc>
    <defs></defs>
    <g id="Symbols" stroke="none" stroke-width="1" fill="none" fill-rule="evenodd">
        <g id="语音条-播放中" transform="translate(-11.000000, -10.000000)" fill="#FFFFFF">
            <g id="Group-2" transform="translate(11.000000, 10.000000)">
                <path d="M1,0 L1,0 C1.55228475,-1.01453063e-16 2,0.44771525 2,1 L2,9 C2,9.55228475 1.55228475,10 1,10 C0.44771525,10 6.76353751e-17,9.55228475 0,9 L0,1 L0,1 C-6.76353751e-17,0.44771525 0.44771525,1.01453063e-16 1,0 L1,0 Z M7,0 C7.55228475,-1.01453063e-16 8,0.44771525 8,1 L8,9 C8,9.55228475 7.55228475,10 7,10 C6.44771525,10 6,9.55228475 6,9 L6,1 L6,1 C6,0.44771525 6.44771525,1.01453063e-16 7,0 Z" id="icon-pause"></path>
            </g>
        </g>
    </g>
</svg>