<?xml version="1.0" encoding="iso-8859-1"?>
<!-- Generator: Adobe Illustrator 16.0.0, SVG Export Plug-In . SVG Version: 6.00 Build 0)  -->
<!DOCTYPE svg PUBLIC "-//W3C//DTD SVG 1.1//EN" "http://www.w3.org/Graphics/SVG/1.1/DTD/svg11.dtd">
<svg version="1.1" id="Layer_1" xmlns="http://www.w3.org/2000/svg" xmlns:xlink="http://www.w3.org/1999/xlink" x="0px" y="0px"
	 width="11.974px" height="16px" viewBox="0 0 11.974 16" style="enable-background:new 0 0 11.974 16;" xml:space="preserve">
<path style="fill:#f00;" d="M6.97,4.896C6.499,3.875,5.829,2.97,4.978,2.205L4.963,2.192C4.817,2.075,4.587,1.919,4.262,1.919
	c-0.51,0-0.924,0.399-0.924,0.89c0,0.448,0.299,0.624,0.589,0.793c0.009,0.005,0.018,0.011,0.028,0.016
	C5.222,4.859,5.92,6.494,5.92,8.225c0,1.707-0.68,3.327-1.915,4.562c-0.019,0.014-0.053,0.038-0.084,0.06
	C3.703,13,3.338,13.256,3.338,13.668c0,0.491,0.415,0.89,0.924,0.89c0.472,0,0.938-0.456,1.068-0.613
	c1.531-1.545,2.374-3.569,2.374-5.702C7.704,7.078,7.457,5.952,6.97,4.896z"/>
<path style="fill:#f00;" d="M1.504,4.295l-0.03-0.023L1.438,4.255C1.262,4.171,1.105,4.132,0.944,4.132
	c-0.062,0-0.115,0.006-0.158,0.01C0.774,4.144,0.762,4.145,0.75,4.146C0.292,4.188-0.016,4.545-0.016,5.033
	c0,0.404,0.242,0.569,0.476,0.729c0.058,0.04,0.118,0.081,0.184,0.13C1.307,6.518,1.672,7.35,1.672,8.236
	c0,0.851-0.342,1.659-0.963,2.278c-0.07,0.042-0.135,0.075-0.198,0.108c-0.236,0.122-0.53,0.274-0.53,0.704
	c0,0.491,0.415,0.89,0.924,0.89c0.354,0,0.666-0.118,0.929-0.352l0.004-0.003c0.509-0.465,0.91-1.012,1.191-1.625
	C3.321,9.599,3.47,8.92,3.47,8.219C3.47,6.687,2.753,5.256,1.504,4.295z"/>
<path style="fill:#f00;" d="M11.262,4.015c-0.454-1.25-1.114-2.417-1.96-3.471C9.063,0.183,8.763,0,8.409,0
	c-0.5,0-0.876,0.375-0.876,0.872c0,0.316,0.16,0.508,0.314,0.694l0.014,0.017c0.718,0.906,1.277,1.909,1.661,2.98
	c0.398,1.111,0.599,2.275,0.599,3.46c0,1.195-0.205,2.369-0.61,3.488c-0.39,1.078-0.957,2.086-1.686,2.996
	c-0.144,0.165-0.223,0.372-0.223,0.583c0,0.501,0.424,0.91,0.946,0.91c0.38,0,0.722-0.221,0.869-0.557
	c0.808-1.036,1.437-2.179,1.871-3.397c0.455-1.278,0.686-2.617,0.686-3.978C11.974,6.679,11.734,5.315,11.262,4.015z"/>
</svg>
